<svg width="438" height="423" viewBox="0 0 438 423" fill="none" xmlns="http://www.w3.org/2000/svg">
<path d="M52.9542 130.69L150.619 130.384L125.706 125.268C125.706 125.268 126.722 97.306 114.52 102.904C111.019 104.483 107.999 106.961 105.766 110.086C103.533 113.211 102.168 116.871 101.809 120.695C101.809 120.695 97.236 109.5 90.6222 113.608C84.0084 117.717 80.9862 124.786 80.9862 124.786C80.9862 124.786 78.6123 116.744 74.3724 116.289C70.7545 115.895 63.8604 123.551 60.2513 127.852L52.9542 130.69Z" fill="#E7F6FC"/>
<path opacity="0.33" d="M321.545 176.076L402.137 175.848L381.586 172.073C381.586 172.073 382.462 151.294 372.361 155.429C362.261 159.563 361.849 168.647 361.849 168.647C361.849 168.647 358.074 160.334 352.616 163.391C349.233 165.359 346.474 168.24 344.654 171.705C344.654 171.705 342.691 165.722 339.196 165.38C336.209 165.091 330.524 170.785 327.545 173.982L321.545 176.076Z" fill="#B6E4F5"/>
<path opacity="0.33" d="M190.486 60.6016L271.078 60.3475L250.536 56.1603C250.536 56.1603 251.412 33.0864 241.303 37.7029C238.41 39.0039 235.914 41.0477 234.068 43.6265C232.221 46.2053 231.091 49.2272 230.791 52.3847C230.791 52.3847 227.016 43.1517 221.567 46.5067C218.111 48.7932 215.353 51.9879 213.595 55.7398C213.595 55.7398 211.642 49.0997 208.146 48.7318C205.159 48.4077 199.474 54.7236 196.496 58.2714L190.486 60.6016Z" fill="#B6E4F5"/>
<path opacity="0.3" d="M332.205 46.6557L326.073 48.7844L323.445 41.1281C322.283 37.7623 320.469 34.6586 318.106 31.9947C315.743 29.3308 312.879 27.1589 309.675 25.6033C306.472 24.0477 302.994 23.1389 299.439 22.929C295.885 22.719 292.324 23.212 288.96 24.3798C285.596 25.5475 282.495 27.3671 279.835 29.7343C277.175 32.1016 275.008 34.9701 273.458 38.1758C271.908 41.3814 271.005 44.8613 270.801 48.4162C270.597 51.9712 271.096 55.5315 272.269 58.8934L274.897 66.5496L268.765 68.6871C266.46 69.4945 264.567 71.1804 263.498 73.3775C262.43 75.5745 262.274 78.1047 263.063 80.4167L280.32 130.217C281.119 132.54 282.805 134.451 285.01 135.533C287.215 136.615 289.759 136.779 292.085 135.99L355.533 113.959C356.689 113.559 357.754 112.936 358.668 112.124C359.582 111.312 360.326 110.328 360.859 109.227C361.392 108.127 361.703 106.933 361.774 105.712C361.844 104.492 361.674 103.27 361.271 102.115L344.023 52.3146C343.203 49.9991 341.499 48.1031 339.284 47.0422C337.069 45.9814 334.523 45.8424 332.205 46.6557ZM283.824 54.8813C283.141 53.0305 282.835 51.0621 282.922 49.0914C283.009 47.1206 283.488 45.187 284.331 43.4035C285.174 41.6201 286.364 40.0227 287.832 38.7047C289.3 37.3868 291.016 36.3747 292.879 35.7277C294.743 35.0807 296.717 34.8117 298.686 34.9366C300.654 35.0614 302.579 35.5775 304.345 36.4548C306.112 37.332 307.687 38.5527 308.976 40.0455C310.266 41.5384 311.245 43.2733 311.856 45.149L314.484 52.7964L286.452 62.5376L283.824 54.8813ZM320.616 100.276L324.996 113.004C325.036 113.133 325.051 113.268 325.038 113.403C325.025 113.537 324.986 113.668 324.923 113.787C324.859 113.906 324.772 114.011 324.668 114.096C324.563 114.181 324.442 114.245 324.313 114.283L318.181 116.394C317.935 116.476 317.668 116.458 317.436 116.345C317.203 116.232 317.024 116.033 316.937 115.79L312.557 103.07C309.796 102.98 307.154 101.927 305.088 100.093C303.023 98.2592 301.665 95.7601 301.249 93.0293C300.834 90.2986 301.387 87.5086 302.814 85.1432C304.24 82.7779 306.449 80.9865 309.058 80.0797C311.667 79.1729 314.512 79.2081 317.098 80.179C319.683 81.1499 321.848 82.9953 323.215 85.3952C324.583 87.795 325.067 90.5979 324.585 93.3175C324.102 96.0371 322.682 98.5019 320.572 100.284L320.616 100.276Z" fill="url(#paint0_linear_17_0)"/>
<path d="M290.236 292.698C288.73 289.763 292.26 286.618 295.492 286.031C298.725 285.444 302.422 285.9 305.015 283.85C308.466 281.108 308.291 275.143 312.119 272.953C315.194 271.201 319.267 272.874 322.517 271.49C326.564 269.738 327.703 264.131 331.671 262.239C334.834 260.724 338.977 262.432 340.589 265.542C342.201 268.652 341.465 272.672 339.222 275.37C337.47 277.482 334.842 278.962 333.791 281.502C332.083 285.444 334.772 290.219 333.204 294.213C330.313 301.589 316.63 299.373 314.256 306.933C313.731 308.615 313.95 310.437 313.81 312.189C313.407 317.445 309.71 322 305.155 324.602C300.6 327.203 295.265 328.106 290.035 328.482C287.889 328.631 285.655 328.675 283.728 327.694C281.985 326.662 280.586 325.139 279.707 323.314C273.417 311.926 270.824 297.034 290.219 292.75" fill="#78BA9A"/>
<path d="M189.347 286.636C192.738 284.402 190.854 278.909 187.727 276.325C184.6 273.741 180.395 272.007 178.853 268.257C176.812 263.247 180.605 256.966 177.811 252.323C175.586 248.6 170.224 247.943 167.57 244.491C164.285 240.217 166.458 233.498 163.357 229.083C160.877 225.579 155.473 224.895 151.828 227.252C148.184 229.608 146.572 234.356 147.37 238.587C147.974 241.898 149.857 245.043 149.498 248.39C148.955 253.646 143.2 257.15 142.49 262.336C141.141 271.972 157.111 277.832 155.096 287.354C154.649 289.474 153.344 291.279 152.407 293.25C149.691 299.092 150.882 306.206 154.159 311.733C157.435 317.261 162.638 321.492 168.017 324.996C170.216 326.441 172.598 327.852 175.235 327.948C177.705 328.044 180.079 326.958 182.191 325.653C195.786 317.234 207.516 302.877 189.347 286.636Z" fill="#1D99DD"/>
<path d="M278.086 298.716C282.817 296.675 287.074 292.908 290.604 289.264C300.135 279.426 306.039 266.593 309.14 253.348C311.952 241.39 312.583 229.021 311.996 216.775C311.944 215.741 310.323 215.732 310.376 216.775C311.69 244.281 306.232 278.025 281.625 294.739C280.248 295.718 278.781 296.566 277.245 297.27C276.29 297.682 277.114 299.075 278.06 298.663L278.086 298.716Z" fill="#E1806D"/>
<path d="M309.368 248.784C309.368 248.784 310.927 239.875 322.727 238.465C322.727 238.43 318.417 248.968 309.368 248.784Z" fill="#E1806D"/>
<path d="M305.496 261.924C305.496 261.924 309.088 253.619 320.896 255.004C320.896 254.995 314.248 264.245 305.496 261.924Z" fill="#E1806D"/>
<path d="M300.468 273.522C300.468 273.522 305.829 266.234 317.024 270.228C317.042 270.228 308.492 277.753 300.468 273.522Z" fill="#E1806D"/>
<path d="M311.182 234.908C311.182 234.908 312.706 226.148 324.322 224.764C324.313 224.764 320.082 235.136 311.182 234.908Z" fill="#E1806D"/>
<path d="M311.339 219.692C311.339 219.692 304.725 213.744 309.719 203.179C309.719 203.179 316.236 212.263 311.339 219.692Z" fill="#E1806D"/>
<path d="M311.374 228.724C311.374 228.724 302.614 227.103 301.353 215.487C301.344 215.496 311.681 219.823 311.374 228.724Z" fill="#E1806D"/>
<path d="M310.507 242.065C310.507 242.065 301.747 240.444 300.486 228.837C300.468 228.837 310.805 233.165 310.507 242.065Z" fill="#E1806D"/>
<path d="M308.229 254.557C308.229 254.557 299.627 252.332 299.163 240.663C299.163 240.663 309.158 245.7 308.229 254.557Z" fill="#E1806D"/>
<path d="M304.27 267.04C304.27 267.04 295.659 264.823 295.212 253.164C295.212 253.164 305.19 258.183 304.27 267.04Z" fill="#E1806D"/>
<path d="M279.584 83.7104H191.003C180.771 83.7104 172.476 92.0055 172.476 102.238V311.532C172.476 321.764 180.771 330.059 191.003 330.059H279.584C289.816 330.059 298.111 321.764 298.111 311.532V102.238C298.111 92.0055 289.816 83.7104 279.584 83.7104Z" fill="#1A3555"/>
<path d="M279.339 90.9551H191.248C184.083 90.9551 178.275 96.7635 178.275 103.929V308.378C178.275 315.543 184.083 321.352 191.248 321.352H279.339C286.504 321.352 292.313 315.543 292.313 308.378V103.929C292.313 96.7635 286.504 90.9551 279.339 90.9551Z" fill="#EFF8FD"/>
<path d="M269.423 90.9549H262.003C260.911 90.9549 259.864 91.3887 259.092 92.1608C258.319 92.9329 257.886 93.9802 257.886 95.0721V98.0155C257.886 99.1098 257.451 100.159 256.677 100.933C255.903 101.707 254.854 102.141 253.76 102.141H220.691C220.149 102.141 219.613 102.035 219.113 101.827C218.613 101.62 218.159 101.316 217.776 100.932C217.394 100.549 217.091 100.094 216.884 99.5938C216.678 99.0932 216.572 98.5569 216.574 98.0155V95.0721C216.571 93.9794 216.135 92.9322 215.362 92.1603C214.588 91.3884 213.54 90.9549 212.448 90.9549H191.424V88.8438H269.458L269.423 90.9549Z" fill="#1A3555"/>
<path d="M238.465 126.459C238.767 126.299 239.007 126.042 239.146 125.73C239.286 125.417 239.317 125.067 239.234 124.735C239.151 124.403 238.96 124.108 238.691 123.897C238.421 123.686 238.089 123.572 237.746 123.572C237.404 123.572 237.072 123.686 236.802 123.897C236.533 124.108 236.341 124.403 236.259 124.735C236.176 125.067 236.207 125.417 236.346 125.73C236.486 126.042 236.726 126.299 237.028 126.459C236.543 126.614 236.119 126.918 235.818 127.329C235.517 127.74 235.355 128.236 235.355 128.746V129.955H240.138V128.772C240.143 128.258 239.984 127.756 239.682 127.34C239.381 126.924 238.954 126.615 238.465 126.459Z" fill="#37366A"/>
<path d="M223.623 139.197C223.205 139.197 222.827 139.104 222.489 138.919C222.156 138.735 221.892 138.479 221.7 138.154C221.511 137.824 221.416 137.456 221.416 137.05C221.416 136.644 221.511 136.278 221.7 135.953C221.892 135.623 222.158 135.366 222.495 135.181C222.833 134.996 223.211 134.903 223.629 134.903C223.943 134.903 224.232 134.956 224.497 135.06C224.763 135.165 224.988 135.318 225.173 135.519L224.889 135.802C224.56 135.468 224.144 135.301 223.641 135.301C223.308 135.301 223.004 135.378 222.731 135.531C222.457 135.683 222.242 135.892 222.085 136.158C221.933 136.423 221.856 136.721 221.856 137.05C221.856 137.38 221.933 137.677 222.085 137.943C222.242 138.208 222.457 138.417 222.731 138.57C223.004 138.722 223.308 138.799 223.641 138.799C224.148 138.799 224.564 138.63 224.889 138.292L225.173 138.576C224.988 138.777 224.761 138.932 224.491 139.04C224.226 139.145 223.937 139.197 223.623 139.197ZM226.444 136.61C226.544 136.397 226.693 136.236 226.89 136.128C227.091 136.019 227.338 135.965 227.632 135.965V136.381L227.529 136.375C227.195 136.375 226.934 136.477 226.745 136.682C226.556 136.887 226.462 137.175 226.462 137.545V139.161H226.034V135.989H226.444V136.61ZM231.139 137.707H228.486C228.51 138.037 228.637 138.304 228.866 138.509C229.095 138.71 229.384 138.811 229.734 138.811C229.931 138.811 230.112 138.777 230.277 138.708C230.442 138.636 230.584 138.532 230.705 138.395L230.946 138.672C230.805 138.841 230.628 138.97 230.415 139.058C230.206 139.147 229.975 139.191 229.722 139.191C229.396 139.191 229.107 139.122 228.854 138.986C228.604 138.845 228.409 138.652 228.269 138.407C228.128 138.162 228.058 137.884 228.058 137.575C228.058 137.265 228.124 136.988 228.257 136.743C228.393 136.497 228.578 136.306 228.811 136.17C229.049 136.033 229.314 135.965 229.607 135.965C229.901 135.965 230.164 136.033 230.397 136.17C230.63 136.306 230.813 136.497 230.946 136.743C231.079 136.984 231.145 137.261 231.145 137.575L231.139 137.707ZM229.607 136.333C229.302 136.333 229.045 136.431 228.836 136.628C228.631 136.821 228.514 137.074 228.486 137.388H230.735C230.707 137.074 230.588 136.821 230.379 136.628C230.174 136.431 229.917 136.333 229.607 136.333ZM233.038 135.965C233.452 135.965 233.769 136.069 233.99 136.278C234.211 136.483 234.322 136.789 234.322 137.195V139.161H233.912V138.666C233.816 138.831 233.673 138.96 233.484 139.052C233.299 139.145 233.078 139.191 232.821 139.191C232.467 139.191 232.185 139.106 231.976 138.938C231.767 138.769 231.663 138.546 231.663 138.268C231.663 137.999 231.759 137.782 231.952 137.617C232.149 137.452 232.461 137.37 232.887 137.37H233.894V137.177C233.894 136.903 233.818 136.696 233.665 136.556C233.512 136.411 233.289 136.339 232.995 136.339C232.794 136.339 232.601 136.373 232.417 136.441C232.232 136.505 232.073 136.596 231.94 136.712L231.747 136.393C231.908 136.256 232.101 136.152 232.326 136.079C232.551 136.003 232.788 135.965 233.038 135.965ZM232.887 138.853C233.128 138.853 233.335 138.799 233.508 138.69C233.681 138.578 233.809 138.417 233.894 138.208V137.689H232.899C232.356 137.689 232.085 137.878 232.085 138.256C232.085 138.441 232.155 138.588 232.296 138.696C232.437 138.801 232.634 138.853 232.887 138.853ZM237.155 138.968C237.075 139.04 236.974 139.096 236.854 139.137C236.737 139.173 236.615 139.191 236.486 139.191C236.188 139.191 235.959 139.11 235.798 138.95C235.638 138.789 235.557 138.562 235.557 138.268V136.351H234.99V135.989H235.557V135.295H235.985V135.989H236.95V136.351H235.985V138.244C235.985 138.433 236.032 138.578 236.124 138.678C236.221 138.775 236.357 138.823 236.534 138.823C236.623 138.823 236.707 138.809 236.787 138.781C236.872 138.753 236.944 138.712 237.004 138.66L237.155 138.968ZM240.584 137.707H237.931C237.955 138.037 238.082 138.304 238.311 138.509C238.54 138.71 238.83 138.811 239.179 138.811C239.376 138.811 239.557 138.777 239.722 138.708C239.887 138.636 240.03 138.532 240.15 138.395L240.391 138.672C240.251 138.841 240.074 138.97 239.861 139.058C239.652 139.147 239.421 139.191 239.167 139.191C238.842 139.191 238.552 139.122 238.299 138.986C238.05 138.845 237.855 138.652 237.714 138.407C237.573 138.162 237.503 137.884 237.503 137.575C237.503 137.265 237.569 136.988 237.702 136.743C237.839 136.497 238.024 136.306 238.257 136.17C238.494 136.033 238.759 135.965 239.053 135.965C239.346 135.965 239.61 136.033 239.843 136.17C240.076 136.306 240.259 136.497 240.391 136.743C240.524 136.984 240.59 137.261 240.59 137.575L240.584 137.707ZM239.053 136.333C238.747 136.333 238.49 136.431 238.281 136.628C238.076 136.821 237.959 137.074 237.931 137.388H240.18C240.152 137.074 240.034 136.821 239.825 136.628C239.62 136.431 239.362 136.333 239.053 136.333ZM224.437 145.033H222.085L221.579 146.161H221.115L223.044 141.94H223.484L225.414 146.161H224.944L224.437 145.033ZM224.274 144.671L223.261 142.404L222.248 144.671H224.274ZM227.307 146.191C226.993 146.191 226.712 146.122 226.463 145.986C226.217 145.849 226.025 145.658 225.884 145.413C225.743 145.164 225.673 144.884 225.673 144.575C225.673 144.265 225.743 143.988 225.884 143.743C226.025 143.497 226.217 143.306 226.463 143.17C226.712 143.033 226.993 142.965 227.307 142.965C227.58 142.965 227.823 143.019 228.037 143.128C228.254 143.232 228.424 143.387 228.549 143.592L228.229 143.809C228.125 143.652 227.992 143.536 227.832 143.459C227.671 143.379 227.496 143.339 227.307 143.339C227.078 143.339 226.871 143.391 226.686 143.495C226.505 143.596 226.362 143.741 226.258 143.93C226.157 144.118 226.107 144.334 226.107 144.575C226.107 144.82 226.157 145.037 226.258 145.226C226.362 145.411 226.505 145.556 226.686 145.66C226.871 145.761 227.078 145.811 227.307 145.811C227.496 145.811 227.671 145.773 227.832 145.696C227.992 145.62 228.125 145.503 228.229 145.347L228.549 145.564C228.424 145.769 228.254 145.925 228.037 146.034C227.819 146.139 227.576 146.191 227.307 146.191ZM230.652 146.191C230.338 146.191 230.057 146.122 229.807 145.986C229.562 145.849 229.369 145.658 229.229 145.413C229.088 145.164 229.018 144.884 229.018 144.575C229.018 144.265 229.088 143.988 229.229 143.743C229.369 143.497 229.562 143.306 229.807 143.17C230.057 143.033 230.338 142.965 230.652 142.965C230.925 142.965 231.168 143.019 231.381 143.128C231.598 143.232 231.769 143.387 231.894 143.592L231.574 143.809C231.47 143.652 231.337 143.536 231.176 143.459C231.015 143.379 230.841 143.339 230.652 143.339C230.423 143.339 230.215 143.391 230.031 143.495C229.85 143.596 229.707 143.741 229.602 143.93C229.502 144.118 229.452 144.334 229.452 144.575C229.452 144.82 229.502 145.037 229.602 145.226C229.707 145.411 229.85 145.556 230.031 145.66C230.215 145.761 230.423 145.811 230.652 145.811C230.841 145.811 231.015 145.773 231.176 145.696C231.337 145.62 231.47 145.503 231.574 145.347L231.894 145.564C231.769 145.769 231.598 145.925 231.381 146.034C231.164 146.139 230.921 146.191 230.652 146.191ZM233.978 146.191C233.673 146.191 233.397 146.122 233.152 145.986C232.907 145.845 232.714 145.652 232.573 145.407C232.433 145.162 232.362 144.884 232.362 144.575C232.362 144.265 232.433 143.988 232.573 143.743C232.714 143.497 232.907 143.306 233.152 143.17C233.397 143.033 233.673 142.965 233.978 142.965C234.284 142.965 234.559 143.033 234.804 143.17C235.05 143.306 235.241 143.497 235.377 143.743C235.518 143.988 235.588 144.265 235.588 144.575C235.588 144.884 235.518 145.162 235.377 145.407C235.241 145.652 235.05 145.845 234.804 145.986C234.559 146.122 234.284 146.191 233.978 146.191ZM233.978 145.811C234.203 145.811 234.404 145.761 234.581 145.66C234.762 145.556 234.903 145.409 235.003 145.22C235.104 145.031 235.154 144.816 235.154 144.575C235.154 144.334 235.104 144.118 235.003 143.93C234.903 143.741 234.762 143.596 234.581 143.495C234.404 143.391 234.203 143.339 233.978 143.339C233.753 143.339 233.55 143.391 233.369 143.495C233.192 143.596 233.052 143.741 232.947 143.93C232.847 144.118 232.796 144.334 232.796 144.575C232.796 144.816 232.847 145.031 232.947 145.22C233.052 145.409 233.192 145.556 233.369 145.66C233.55 145.761 233.753 145.811 233.978 145.811ZM239.321 142.989V146.161H238.911V145.582C238.798 145.775 238.643 145.925 238.446 146.034C238.249 146.139 238.024 146.191 237.771 146.191C237.357 146.191 237.029 146.076 236.788 145.847C236.551 145.614 236.432 145.274 236.432 144.828V142.989H236.86V144.786C236.86 145.119 236.943 145.373 237.108 145.546C237.272 145.718 237.508 145.805 237.813 145.805C238.147 145.805 238.41 145.704 238.603 145.503C238.796 145.298 238.893 145.015 238.893 144.653V142.989H239.321ZM242.136 142.965C242.534 142.965 242.849 143.081 243.082 143.314C243.32 143.544 243.438 143.879 243.438 144.321V146.161H243.01V144.364C243.01 144.034 242.928 143.783 242.763 143.61C242.598 143.437 242.363 143.351 242.057 143.351C241.716 143.351 241.444 143.453 241.243 143.658C241.046 143.859 240.948 144.139 240.948 144.496V146.161H240.52V142.989H240.93V143.574C241.046 143.381 241.207 143.232 241.412 143.128C241.621 143.019 241.862 142.965 242.136 142.965ZM246.271 145.968C246.19 146.04 246.09 146.096 245.969 146.137C245.853 146.173 245.73 146.191 245.602 146.191C245.304 146.191 245.075 146.11 244.914 145.95C244.753 145.789 244.673 145.562 244.673 145.268V143.351H244.106V142.989H244.673V142.295H245.101V142.989H246.066V143.351H245.101V145.244C245.101 145.433 245.147 145.578 245.24 145.678C245.336 145.775 245.473 145.823 245.65 145.823C245.738 145.823 245.823 145.809 245.903 145.781C245.987 145.753 246.06 145.712 246.12 145.66L246.271 145.968Z" fill="#37366A"/>
<path d="M257.57 276.912H211.834C211.36 276.912 210.976 277.296 210.976 277.771V286.706C210.976 287.18 211.36 287.564 211.834 287.564H257.57C258.044 287.564 258.429 287.18 258.429 286.706V277.771C258.429 277.296 258.044 276.912 257.57 276.912Z" fill="#78BA9A"/>
<path d="M278.726 156.664H196.767C195.432 156.664 194.349 157.746 194.349 159.082V167.325C194.349 168.66 195.432 169.742 196.767 169.742H278.726C280.061 169.742 281.143 168.66 281.143 167.325V159.082C281.143 157.746 280.061 156.664 278.726 156.664Z" stroke="#37366A" stroke-width="0.5" stroke-miterlimit="10"/>
<path d="M278.726 185.887H196.767C195.432 185.887 194.349 186.97 194.349 188.305V196.548C194.349 197.883 195.432 198.966 196.767 198.966H278.726C280.061 198.966 281.143 197.883 281.143 196.548V188.305C281.143 186.97 280.061 185.887 278.726 185.887Z" stroke="#37366A" stroke-width="0.5" stroke-miterlimit="10"/>
<path d="M278.726 216.626H196.767C195.432 216.626 194.349 217.708 194.349 219.044V227.287C194.349 228.622 195.432 229.705 196.767 229.705H278.726C280.061 229.705 281.143 228.622 281.143 227.287V219.044C281.143 217.708 280.061 216.626 278.726 216.626Z" stroke="#37366A" stroke-width="0.5" stroke-miterlimit="10"/>
<path d="M278.726 247.514H196.767C195.432 247.514 194.349 248.596 194.349 249.931V258.175C194.349 259.51 195.432 260.592 196.767 260.592H278.726C280.061 260.592 281.143 259.51 281.143 258.175V249.931C281.143 248.596 280.061 247.514 278.726 247.514Z" stroke="#37366A" stroke-width="0.5" stroke-miterlimit="10"/>
<path d="M233.945 160.194V164.811" stroke="#50C3E2" stroke-width="0.5" stroke-miterlimit="10"/>
<path opacity="0.25" d="M278.769 367.359C278.769 366.343 253.777 365.52 222.942 365.52C192.107 365.52 167.106 366.343 167.106 367.359C167.106 368.375 192.107 369.208 222.942 369.208C253.777 369.208 278.769 368.384 278.769 367.359Z" fill="#6756AD"/>
<path d="M228.837 249.222C228.837 249.222 234.382 257.789 235.644 254.084L237.668 248.092C237.668 248.092 236.091 245.508 235.258 246.34C234.426 247.172 233.252 245.665 233.252 245.665L228.837 249.222Z" fill="#F5BA9A"/>
<path d="M256.256 204.914L258.551 191.607C260.058 191.117 261.609 189.952 261.074 188.156C260.939 187.755 260.709 187.393 260.404 187.1C260.099 186.808 259.728 186.593 259.322 186.474C259.007 186.351 257.404 185.887 257.299 186.474L258.175 181.673L242.564 174.14C242.564 174.14 241.137 183.697 241.128 183.776C240.58 183.506 239.985 183.346 239.376 183.303C238.97 183.388 238.59 183.569 238.267 183.829C237.945 184.089 237.688 184.422 237.519 184.801C237.356 185.252 237.3 185.736 237.357 186.212C237.413 186.689 237.58 187.146 237.843 187.547C238.107 187.948 238.46 188.282 238.875 188.523C239.29 188.764 239.755 188.905 240.234 188.936C240.234 188.936 240.506 193.219 241.496 194.743C242.486 196.268 247.085 197.319 247.085 197.319L246.576 203.109L256.256 204.914Z" fill="#F5BA9A"/>
<path d="M261.53 206.009C254.478 204.029 244.57 202.286 244.57 202.286L237.992 249.099L265.691 248.223L261.53 206.009Z" fill="#1D99DD"/>
<path d="M261.53 206.009C270.64 208.471 279.927 210.228 289.308 211.265C287.205 201.629 286.049 194.34 283.29 186.185L293.688 183.557C293.688 183.557 302.448 213.945 299.767 217.992C295.265 224.895 272.821 220.349 272.821 220.349L262.213 218.457L261.53 206.009Z" fill="#1D99DD"/>
<path d="M214.103 216.311C214.103 216.311 243.835 201.769 245.192 202.295C246.55 202.82 247.724 209.565 247.724 209.565C238.877 214.974 229.715 219.85 220.288 224.168L235.443 244.798L227.891 250.212C227.891 250.212 207.078 226.823 207.866 221.987C208.488 218.282 214.103 216.311 214.103 216.311Z" fill="#1D99DD"/>
<path d="M293.241 183.609C293.241 183.609 292.015 175.016 291.866 174.771C291.717 174.525 291.717 173.019 289.509 173.369C289.509 173.369 289.36 170.645 288.09 170.592C287.182 170.587 286.277 170.687 285.392 170.89C285.392 170.89 283.955 163.882 283.018 162.691C282.081 161.499 280.583 164.854 282.79 173.369C282.79 173.369 284.008 179.159 283.666 179.37C282.676 179.948 281.319 179.843 279.435 176.628C277.438 173.22 274.95 174.376 276.177 177.022C277.403 179.667 279.146 183.101 280.276 184.03C281.406 184.958 283.78 184.818 283.78 184.818L284.131 185.922L293.241 183.609Z" fill="#F5BA9A"/>
<path d="M265.691 248.25C262.353 298.909 251.027 361.429 251.027 361.429L262.117 366.168H238.465L254.04 255.564H248.732L209.495 366.168H185.905L199.325 361.271L238.5 245.473L265.691 248.25Z" fill="#594656"/>
<path d="M260.006 186.824C261.328 184.196 262.87 177.775 258.867 175.997C256.837 175.048 254.886 173.937 253.033 172.677C251.836 171.844 250.474 171.279 249.039 171.021C247.605 170.762 246.131 170.816 244.719 171.179C244.266 171.299 243.826 171.464 243.405 171.67C240.611 173.036 238.719 180.473 238.719 180.473L241.469 181.165C241.469 181.165 244.535 194.796 249.581 197.599L254.618 198.668L257.605 199.342L260.006 186.824Z" fill="#B96944"/>
<path d="M256.353 175.051C256.377 174.235 256.345 173.419 256.256 172.607C256.256 172.274 255.704 172.274 255.739 172.607C255.82 173.419 255.852 174.235 255.836 175.051C255.847 175.111 255.879 175.166 255.926 175.205C255.973 175.245 256.033 175.266 256.094 175.266C256.156 175.266 256.215 175.245 256.262 175.205C256.309 175.166 256.341 175.111 256.353 175.051Z" fill="#B96944"/>
<path d="M256.353 175.2C256.651 174.942 256.874 174.609 257.001 174.236C257.244 173.799 257.519 173.38 257.824 172.984C258.026 172.721 257.579 172.458 257.378 172.721C257.135 173.033 256.912 173.361 256.712 173.702C256.537 173.982 256.379 174.578 256.09 174.744C255.801 174.911 256.09 175.375 256.353 175.2Z" fill="#B96944"/>
<path opacity="0.25" d="M159.826 353.904C159.826 352.888 134.825 352.056 103.99 352.056C73.1548 352.056 48.1801 352.905 48.1801 353.904C48.1801 354.902 73.1811 355.752 104.016 355.752C134.851 355.752 159.826 354.946 159.826 353.904Z" fill="#6756AD"/>
<path d="M123.201 160.08C122.089 159.876 120.965 159.745 119.837 159.686C117.831 159.493 116.009 160.79 114.502 162.112C113.04 163.494 111.828 165.118 110.919 166.913C109.921 168.665 108.983 170.776 109.579 172.738C109.784 173.218 109.914 173.726 109.964 174.245C109.964 175.866 107.704 176.479 107.003 177.95C106.127 179.755 107.879 182.199 106.714 183.811C106.11 184.608 104.962 184.862 104.393 185.694C104.026 186.393 103.891 187.191 104.008 187.972C103.993 188.136 104.043 188.3 104.148 188.427C104.259 188.504 104.39 188.547 104.524 188.55C110.919 189.163 117.253 187.779 123.647 188.392C125.533 188.716 127.473 188.363 129.122 187.394C134.65 184.88 140.178 184.223 145.582 181.446C145.819 181.351 146.021 181.186 146.161 180.973C146.236 180.79 146.26 180.59 146.231 180.394C146.145 179.681 145.858 179.007 145.403 178.45C144.949 177.893 144.346 177.477 143.664 177.25C142.262 176.812 140.572 177.197 139.398 176.304C139.007 175.942 138.692 175.505 138.474 175.018C138.256 174.532 138.138 174.007 138.128 173.474C137.9 171.328 138.128 168.84 136.595 167.342C135.368 166.168 133.415 166.046 132.215 164.872C131.601 164.131 131.056 163.336 130.585 162.498C128.938 160.203 126.127 158.871 123.227 160.089" fill="#594656"/>
<path d="M112.513 233.98L76.8602 346.8L62.8442 352.204H83.658L123.901 245.919C124.028 245.586 124.254 245.299 124.548 245.097C124.842 244.895 125.191 244.788 125.548 244.789C125.796 244.788 126.04 244.839 126.266 244.939C126.493 245.038 126.695 245.185 126.861 245.369C127.026 245.552 127.151 245.769 127.227 246.004C127.302 246.24 127.328 246.488 127.3 246.734L116.683 352.204H137.76L123.691 347.553C123.691 347.553 136.831 286.233 139.722 267.031C142.613 247.829 138.408 234.277 138.408 234.277C138.408 234.277 124.742 229.95 112.513 233.98Z" fill="#53648C"/>
<path d="M112.925 193.377C116.193 189.969 129.184 189.575 133.879 191.502C138.575 193.429 147.221 218.378 147.221 218.378L138.627 221.75L133.292 200.893L116.578 198.589L112.925 193.377Z" fill="#78BA9A"/>
<path d="M134.904 203.959C135.724 201.99 136.312 199.932 136.656 197.827C136.971 195.199 133.345 192.571 133.345 192.571L113.687 197.661L114.914 209.373L112.023 233.025L137.006 233.953L134.501 204.047" fill="#78BA9A"/>
<path d="M115.185 204.634C115.1 204.634 115.017 204.606 114.949 204.555C114.863 204.492 114.806 204.397 114.79 204.292C114.773 204.187 114.799 204.08 114.861 203.994L116.263 202.128C116.291 202.079 116.33 202.037 116.377 202.004C116.423 201.971 116.476 201.948 116.531 201.937C116.587 201.926 116.644 201.927 116.7 201.94C116.755 201.952 116.807 201.976 116.853 202.011C116.898 202.045 116.936 202.088 116.963 202.138C116.99 202.188 117.007 202.243 117.012 202.299C117.016 202.356 117.009 202.413 116.99 202.466C116.971 202.52 116.941 202.569 116.902 202.61L115.509 204.476C115.47 204.524 115.421 204.563 115.365 204.59C115.309 204.618 115.247 204.632 115.185 204.634Z" fill="#5D95BA"/>
<path d="M102.702 237.072L107.214 234.444L102.702 237.072Z" fill="#8FCAEC"/>
<path d="M122.167 190.565C121.895 187.937 123.227 185.309 119.013 183.618C113.206 181.288 111.962 161.263 122.456 161.219C132.951 161.175 132.425 174.359 132.39 178.319C132.355 182.278 128.886 183.242 128.01 184.661C127.134 186.08 127.887 190.565 127.887 190.565H122.167Z" fill="#F5BA9A"/>
<path d="M116.219 175.393C116.164 175.778 115.999 176.14 115.744 176.434C115.489 176.728 115.154 176.943 114.781 177.053C114.407 177.163 114.01 177.163 113.636 177.054C113.262 176.944 112.928 176.73 112.673 176.436C112.417 176.142 112.252 175.78 112.196 175.395C112.14 175.009 112.196 174.616 112.358 174.262C112.519 173.907 112.779 173.606 113.106 173.395C113.434 173.184 113.815 173.072 114.204 173.071C114.778 173.116 115.31 173.385 115.687 173.819C116.064 174.253 116.255 174.819 116.219 175.393Z" fill="#F5BA9A"/>
<path d="M133.021 175.927C134.133 175.927 135.035 174.884 135.035 173.597C135.035 172.31 134.133 171.267 133.021 171.267C131.908 171.267 131.006 172.31 131.006 173.597C131.006 174.884 131.908 175.927 133.021 175.927Z" fill="#F5BA9A"/>
<path opacity="0.3" d="M176.453 215.995L173.343 208.111L85.3926 242.652C82.7589 239.093 78.9434 236.588 74.6303 235.588C70.3173 234.587 65.7888 235.156 61.8571 237.192C57.9255 239.228 54.8479 242.599 53.1763 246.699C51.5047 250.799 51.3484 255.36 52.7356 259.565C54.1227 263.769 56.9625 267.342 60.7456 269.643C64.5287 271.943 69.0077 272.82 73.3791 272.117C77.7505 271.414 81.7285 269.177 84.5995 265.806C87.4705 262.435 89.0467 258.152 89.0455 253.725C89.0445 252.969 88.9947 252.214 88.8966 251.465L155.876 224.309L159.555 232.394L167.728 228.654L164.855 222.215L167.483 220.813L170.592 227.007L176.435 223.888L173.203 217.283L176.453 215.995ZM70.4042 265.857C68.0029 265.857 65.6555 265.145 63.6588 263.811C61.6622 262.477 60.106 260.581 59.1871 258.362C58.2681 256.144 58.0277 253.702 58.4961 251.347C58.9646 248.992 60.121 246.829 61.819 245.131C63.517 243.433 65.6804 242.276 68.0355 241.808C70.3907 241.339 72.832 241.58 75.0505 242.499C77.2691 243.418 79.1653 244.974 80.4994 246.971C81.8335 248.967 82.5456 251.315 82.5456 253.716C82.5433 256.935 81.2633 260.022 78.9869 262.299C76.7104 264.575 73.6236 265.855 70.4042 265.857Z" fill="url(#paint1_linear_17_0)"/>
<path d="M112.925 193.377C112.925 193.377 90.7536 213.122 90.631 216.792C90.5083 220.463 103.701 239.726 103.701 239.726L110.288 235.565L101.055 218.282L116.079 203.959C116.079 203.959 116.569 207.288 117.769 208.19L118.435 195.05L112.925 193.377Z" fill="#78BA9A"/>
<path d="M130.279 165.827C127.397 165.976 114.625 167.272 114.625 167.272C114.625 167.272 116.491 159.607 122.456 159.301C130.279 158.906 130.279 165.827 130.279 165.827Z" fill="#594656"/>
<path d="M114.642 173.921C114.642 173.921 124.997 172.957 126.81 168.069C126.81 168.069 130.244 172.449 132.259 172.239C132.259 172.239 132.583 166.457 131.383 165.678C130.182 164.898 114.248 166.554 114.248 166.554C114.017 169.015 114.149 171.498 114.642 173.921Z" fill="#594656"/>
<path d="M103.972 239.498C103.972 239.498 106.802 245.455 106.968 245.63C107.135 245.806 107.468 246.874 108.992 246.112C108.992 246.112 109.71 248.057 110.648 247.803C111.309 247.608 111.944 247.335 112.54 246.988C112.54 246.988 113.67 248.495 114.519 247.698C115.501 246.76 114.572 245.727 113.871 244.597C113.871 244.597 111.672 240.672 111.891 240.436C112.478 239.796 113.486 239.56 115.579 241.478C117.673 243.397 119.337 242.1 117.848 240.453C116.359 238.806 114.344 236.713 113.302 236.292C112.392 236.095 111.444 236.171 110.577 236.511L110.069 235.784L103.972 239.498Z" fill="#F5BA9A"/>
<path d="M149.314 226.989C149.314 226.989 147.72 231.509 144.934 232.245C142.149 232.981 126.608 236.161 126.608 236.161V230.029L149.314 226.989Z" fill="#78BA9A"/>
<path d="M126.626 230.765H125.435C125.319 230.386 125.176 230.017 125.005 229.661C124.515 228.872 117.997 228.04 118.129 228.899C118.26 229.757 119.311 229.959 121.633 230.388C121.633 230.388 113.048 232.464 113.854 233.147C114.66 233.831 119.986 232.271 119.986 232.271C119.986 232.271 114.178 234.163 114.59 235.451C114.826 236.187 120.722 234.452 120.722 234.452C120.722 234.452 114.721 236.599 115.79 237.326C116.858 238.053 123.481 236.45 124.121 236.187C124.76 235.924 124.997 234.733 124.997 234.733L126.617 234.452L126.626 230.765Z" fill="#F5BA9A"/>
<path d="M121.764 156.962C121.89 157.99 122.186 158.991 122.64 159.922C122.859 160.264 123.42 159.922 123.192 159.598C122.773 158.711 122.501 157.761 122.386 156.786C122.29 156.383 121.668 156.559 121.764 156.962Z" fill="#594656"/>
<path d="M123.131 159.975C123.455 159.397 123.805 158.827 124.182 158.275C124.41 157.934 123.858 157.61 123.63 157.951C123.253 158.503 122.903 159.073 122.57 159.651C122.369 160.019 122.929 160.343 123.131 159.975Z" fill="#594656"/>
<path d="M124.392 173.448C124.369 174.185 124.398 174.923 124.48 175.656C124.523 176.032 124.48 176.707 124.742 176.987C125.005 177.267 125.207 177.145 125.399 177.171C126.1 177.285 126.81 177.364 127.519 177.46C127.519 177.364 127.441 177.276 127.405 177.18C126.821 177.734 126.141 178.179 125.399 178.494C125.207 178.573 125.399 178.853 125.557 178.774C126.327 178.449 127.03 177.986 127.633 177.408C127.653 177.384 127.665 177.356 127.669 177.326C127.674 177.296 127.67 177.265 127.658 177.237C127.647 177.209 127.627 177.185 127.603 177.167C127.578 177.149 127.55 177.139 127.519 177.136C126.784 177.04 125.286 177.136 124.891 176.348C124.637 175.403 124.575 174.417 124.707 173.448C124.707 173.247 124.392 173.247 124.383 173.448H124.392Z" fill="#F49E78"/>
<path d="M127.668 175.682C127.756 174.955 127.292 173.238 128.211 172.887C129.131 172.537 129.552 173.255 129.683 173.947L129.92 175.244C129.92 175.454 130.261 175.366 130.226 175.165C130.034 174.096 129.99 172.274 128.404 172.493C126.819 172.712 127.467 174.745 127.344 175.682C127.344 175.892 127.642 175.892 127.668 175.682Z" fill="#514540"/>
<path d="M119.381 176.12C119.478 175.393 119.005 173.676 119.933 173.325C120.862 172.975 121.273 173.693 121.396 174.385L121.633 175.682C121.633 175.892 121.983 175.804 121.948 175.603C121.755 174.534 121.703 172.712 120.117 172.931C118.532 173.15 119.18 175.182 119.057 176.12C119.057 176.33 119.355 176.33 119.381 176.12Z" fill="#514540"/>
<path d="M121.571 177.986C121.913 180.614 126.433 181.192 128.097 179.571C128.246 179.422 128.019 179.203 127.87 179.343C126.486 180.701 122.202 180.377 121.887 177.986C121.887 177.784 121.545 177.784 121.571 177.986Z" fill="#F49E78"/>
<path d="M121.51 178.432C121.554 178.294 121.647 178.177 121.771 178.101C121.895 178.025 122.041 177.997 122.185 178.021C122.386 178.021 122.474 177.74 122.263 177.705C122.038 177.665 121.806 177.707 121.609 177.824C121.412 177.942 121.265 178.127 121.195 178.345C121.133 178.546 121.44 178.634 121.51 178.432Z" fill="#F49E78"/>
<g opacity="0.28">
<path opacity="0.28" d="M121.107 176.952C121.247 177.311 120.616 177.898 119.653 178.108C119.247 178.206 118.824 178.206 118.418 178.108C118.199 178.059 118.003 177.935 117.866 177.758C117.841 177.711 117.827 177.658 117.827 177.604C117.827 177.551 117.841 177.498 117.866 177.451C117.96 177.318 118.083 177.207 118.225 177.127C118.572 176.943 118.944 176.81 119.329 176.733C120.196 176.523 120.958 176.558 121.107 176.952Z" fill="#F28279"/>
</g>
<g opacity="0.28">
<path opacity="0.28" d="M131.637 176.19C131.777 176.549 131.146 177.127 130.182 177.337C129.779 177.434 129.359 177.434 128.956 177.337C128.734 177.296 128.536 177.171 128.404 176.987C128.377 176.94 128.363 176.887 128.363 176.834C128.363 176.78 128.377 176.727 128.404 176.68C128.492 176.545 128.613 176.434 128.755 176.356C129.102 176.172 129.473 176.04 129.858 175.962C130.726 175.787 131.496 175.822 131.637 176.19Z" fill="#F28279"/>
</g>
<path d="M114.064 174.192C113.926 174.209 113.792 174.254 113.672 174.325C113.552 174.395 113.447 174.49 113.365 174.602C113.283 174.715 113.225 174.843 113.194 174.979C113.164 175.115 113.162 175.256 113.188 175.393C113.204 175.676 113.324 175.944 113.524 176.145C113.724 176.347 113.991 176.469 114.274 176.488C114.476 176.488 114.476 176.181 114.274 176.163C113.398 176.102 113.153 174.543 114.099 174.508C114.141 174.508 114.181 174.491 114.21 174.462C114.24 174.432 114.257 174.392 114.257 174.35C114.257 174.308 114.24 174.268 114.21 174.239C114.181 174.209 114.141 174.192 114.099 174.192H114.064Z" fill="#F49E78"/>
<path d="M113.206 175.069C113.357 175.254 113.55 175.401 113.77 175.497C113.989 175.593 114.228 175.635 114.467 175.62C114.669 175.62 114.669 175.288 114.467 175.296C114.27 175.312 114.073 175.278 113.893 175.199C113.712 175.119 113.555 174.996 113.433 174.841C113.311 174.674 113.083 174.902 113.206 175.069Z" fill="#F49E78"/>
<path d="M132.863 174.744C133.555 174.911 133.94 174.271 134.028 173.676C134.058 173.518 134.055 173.356 134.019 173.199C133.984 173.043 133.916 172.895 133.82 172.766C133.725 172.637 133.604 172.529 133.465 172.449C133.326 172.368 133.171 172.318 133.012 172.3C132.802 172.3 132.81 172.607 133.012 172.624C133.214 172.664 133.396 172.773 133.526 172.933C133.656 173.093 133.725 173.294 133.721 173.5C133.721 173.903 133.485 174.525 132.951 174.376C132.749 174.333 132.661 174.639 132.863 174.692V174.744Z" fill="#F49E78"/>
<path d="M133.056 173.798C133.358 173.531 133.554 173.164 133.608 172.765C133.608 172.563 133.327 172.476 133.301 172.677C133.253 173.016 133.086 173.327 132.828 173.553C132.679 173.684 132.907 173.912 133.056 173.781V173.798Z" fill="#F49E78"/>
<defs>
<linearGradient id="paint0_linear_17_0" x1="267.519" y1="34.9112" x2="361.617" y2="40.5026" gradientUnits="userSpaceOnUse">
<stop stop-color="#1482E8"/>
<stop offset="1" stop-color="#28C6DC"/>
</linearGradient>
<linearGradient id="paint1_linear_17_0" x1="58.0204" y1="214.914" x2="174.622" y2="230.306" gradientUnits="userSpaceOnUse">
<stop stop-color="#1482E8"/>
<stop offset="1" stop-color="#28C6DC"/>
</linearGradient>
</defs>
</svg>
